<?xml version="1.0" encoding="UTF-8" standalone="no"?>
<!-- Generated by IcoMoon.io -->

<svg
   xmlns:dc="http://purl.org/dc/elements/1.1/"
   xmlns:cc="http://creativecommons.org/ns#"
   xmlns:rdf="http://www.w3.org/1999/02/22-rdf-syntax-ns#"
   xmlns:svg="http://www.w3.org/2000/svg"
   xmlns="http://www.w3.org/2000/svg"
   xmlns:sodipodi="http://sodipodi.sourceforge.net/DTD/sodipodi-0.dtd"
   xmlns:inkscape="http://www.inkscape.org/namespaces/inkscape"
   version="1.1"
   width="20"
   height="20"
   viewBox="0 0 20 20"
   id="svg6"
   sodipodi:docname="lnr-plus-circle.svg"
   inkscape:version="0.92.4 (5da689c313, 2019-01-14)">
  <metadata
     id="metadata12">
    <rdf:RDF>
      <cc:Work
         rdf:about="">
        <dc:format>image/svg+xml</dc:format>
        <dc:type
           rdf:resource="http://purl.org/dc/dcmitype/StillImage" />
      </cc:Work>
    </rdf:RDF>
  </metadata>
  <defs
     id="defs10" />
  <sodipodi:namedview
     pagecolor="#ffffff"
     bordercolor="#666666"
     borderopacity="1"
     objecttolerance="10"
     gridtolerance="10"
     guidetolerance="10"
     inkscape:pageopacity="0"
     inkscape:pageshadow="2"
     inkscape:window-width="1280"
     inkscape:window-height="959"
     id="namedview8"
     showgrid="false"
     inkscape:zoom="11.8"
     inkscape:cx="-4.9838579"
     inkscape:cy="10"
     inkscape:window-x="0"
     inkscape:window-y="0"
     inkscape:window-maximized="1"
     inkscape:current-layer="svg6" />
  <path
     d="M 17.071579,2.9285752 C 15.183158,1.0400547 12.671579,0 10,0 7.3284211,0 4.8178947,1.0400547 2.9284211,2.9285752 1.0389474,4.8170957 0,7.3288067 0,9.9994739 0,12.670141 1.04,15.181851 2.9284211,17.071425 4.8168421,18.960998 7.3284211,20 10,20 12.671579,20 15.182105,18.959945 17.071579,17.071425 18.961053,15.182904 20,12.671193 20,9.9994739 20,7.3277541 18.96,4.8170957 17.071579,2.9285752 Z M 10,18.948366 c -4.9336842,0 -8.9473684,-4.013896 -8.9473684,-8.947839 0,-4.9339445 4.0136842,-8.94784 8.9473684,-8.94784 4.933684,0 8.947368,4.0138955 8.947368,8.94784 0,4.933943 -4.013684,8.947839 -8.947368,8.947839 z"
     id="path2"
     inkscape:connector-curvature="0"
     style="fill:#fcac45;stroke-width:1.05265927;fill-opacity:1" />
  <path
     d="M 16,10 H 10.5 V 4.5 C 10.5,4.224 10.276,4 10,4 9.724,4 9.5,4.224 9.5,4.5 V 10 H 4 C 3.724,10 3.5,10.224 3.5,10.5 3.5,10.776 3.724,11 4,11 h 5.5 v 5.5 c 0,0.276 0.224,0.5 0.5,0.5 0.276,0 0.5,-0.224 0.5,-0.5 V 11 H 16 c 0.276,0 0.5,-0.224 0.5,-0.5 C 16.5,10.224 16.276,10 16,10 Z"
     id="path4"
     style="fill:#fcac45;fill-opacity:1"
     inkscape:connector-curvature="0" />
</svg>
